PathFileType	4	(X/Y/Z)	DARI_DATA/Captury_Subj8_bilateral_squat02.trc
DataRate	CameraRate	NumFrames	NumMarkers	Units	OrigDataRate	OrigDataStartFrame	OrigNumFrames
60	60	7	47	mm	59.99879837036133	180	239
Frame#	Time		LeftUpLeg_		RightUpLeg_		LeftLeg_		RightLeg_		LeftFoot_		RightFoot_		LeftToeBase_		RightToeBase_		Knee_Lateral_r		Knee_Lateral_l		Ankle_Lateral_r		Ankle_Lateral_l		LeftArm_		LeftForeArm_		LeftHand_		LeftHandEE		RightArm_		RightForeArm_		RightHand_		RightHandEE		Spine_		Spine1_		Spine2_		Spine3_		Spine4_		Spine5_		Spine_x		Spine_y		Spine_z		RASI		LASI		RIPS		LIPS		RTHI		LTHI		RTIB		LTIB		RTOE		LTOE		RHEE		LHEE		RHipAngles		LHipAngles		RKneeAngles		LKneeAngles		RAnkleAngles		LAnkleAngles
			X1	Y1	Z1	X2	Y2	Z2	X3	Y3	Z3	X4	Y4	Z4	X5	Y5	Z5	X6	Y6	Z6	X7	Y7	Z7	X8	Y8	Z8	X9	Y9	Z9	X10	Y10	Z10	X11	Y11	Z11	X12	Y12	Z12	X13	Y13	Z13	X14	Y14	Z14	X15	Y15	Z15	X16	Y16	Z16	X17	Y17	Z17	X18	Y18	Z18	X19	Y19	Z19	X20	Y20	Z20	X21	Y21	Z21	X22	Y22	Z22	X23	Y23	Z23	X24	Y24	Z24	X25	Y25	Z25	X26	Y26	Z26	X27	Y27	Z27	X28	Y28	Z28	X29	Y29	Z29	X30	Y30	Z30	X31	Y31	Z31	X32	Y32	Z32	X33	Y33	Z33	X34	Y34	Z34	X35	Y35	Z35	X36	Y36	Z36	X37	Y37	Z37	X38	Y38	Z38	X39	Y39	Z39	X40	Y40	Z40	X41	Y41	Z41	X42	Y42	Z42	X43	Y43	Z43	X44	Y44	Z44	X45	Y45	Z45	X46	Y46	Z46	X47	Y47	Z47

180	2.98333	-85.50202	927.59027	125.48716	91.49290	919.88049	127.36021	-100.30298	503.40338	89.66560	108.89634	495.90933	90.17999	-122.55878	109.74786	97.21076	132.11243	102.29486	96.93109	-155.61732	39.20013	-14.25570	168.60216	33.26939	-14.41795	157.44217	494.89835	95.88739	-148.98264	502.22992	94.04810	178.39264	106.20269	122.08601	-169.55968	113.78086	120.97101	-138.32487	1419.78186	88.93232	-186.58975	1416.34485	-187.50470	-182.78944	1451.53870	-426.01874	-166.00372	1451.66760	-512.40204	140.38852	1422.13525	98.44921	185.17212	1409.00293	-178.28302	174.82904	1424.54907	-418.68549	165.25009	1413.14233	-505.41486	6.98770	1020.72919	148.41322	9.32482	1115.71021	127.32156	7.72963	1184.20703	134.02220	0.56054	1270.42041	159.09569	-7.51683	1402.24841	134.09967	-27904771620864.00000	0.00000	-27904805175296.00000	56.78370	1018.56012	148.94019	9.14354	1070.51404	149.61726	6.40898	1019.54913	198.24191	156.47113	987.18323	29.68285	-142.30490	1000.19763	26.52106	45.18377	988.41504	178.00958	-34.48984	991.88556	177.16644	168.37054	719.46643	121.14019	-161.43390	726.85822	118.02840	160.35849	320.19485	83.03420	-151.65865	268.81265	77.49832	183.76613	28.34335	-89.41224	-171.69843	16.65720	-85.75092	133.35545	45.32896	159.15967	-125.55258	53.59704	160.11685	-3.29017	1.78416	5.86004	-2.49900	-3.46123	5.89193	0.00155	1.58261	0.22319	0.03630	1.61933	0.13202	14.88777	5.61378	11.31628	15.40318	5.59138	11.44597
181	3.00000	-85.49325	927.44562	125.70542	91.50491	919.72540	127.19040	-100.50131	503.24457	90.13718	109.49362	495.73099	90.55663	-122.14046	109.56100	98.00992	131.71417	102.06659	97.73895	-156.62048	39.52135	-13.34628	169.62689	33.54777	-13.44750	157.94653	494.72635	97.00633	-149.10310	502.02911	95.30266	177.64465	105.77162	123.55684	-168.79770	113.43839	122.46329	-138.53122	1419.31506	89.22737	-187.59952	1415.30811	-187.06053	-183.87967	1450.72119	-425.54340	-166.52623	1450.28088	-511.81342	139.91585	1421.24927	98.85569	184.36885	1407.67053	-177.90833	173.92958	1423.02502	-418.31894	164.36754	1411.53711	-505.03943	7.05933	1020.66949	148.02454	9.33576	1115.53870	126.78827	7.71936	1183.95300	133.50330	0.51450	1270.03528	158.74301	-7.74242	1401.84387	134.13783	-27904771620864.00000	0.00000	-27904805175296.00000	56.85625	1018.49750	148.44232	9.22268	1070.45862	149.01649	6.59880	1019.69666	197.85893	156.25737	986.61481	29.08016	-142.52412	999.64685	26.57345	45.32254	988.47467	177.66423	-34.35252	991.94989	176.99577	168.47757	719.31146	122.27711	-161.36139	726.64758	119.47472	160.64932	319.89746	84.17918	-151.72546	268.58759	78.71537	185.82048	28.99651	-88.24997	-173.65099	17.38081	-84.74734	131.99039	44.77903	159.68341	-124.12741	53.07770	160.65768	-3.54499	1.87262	6.83927	-2.70145	-3.46085	6.67402	0.00354	1.44224	0.15882	0.03168	1.58855	0.03692	14.57611	5.60860	11.30334	15.11693	5.56154	11.37059
182	3.01667	-85.27064	927.24994	125.64285	91.73432	919.61188	126.67142	-100.78931	503.02881	90.53765	109.52589	495.55914	90.62241	-122.22760	109.34265	98.81651	131.55409	101.89282	98.27458	-157.60538	39.65646	-12.47979	170.22420	33.69788	-12.85010	157.92670	494.50711	97.44504	-149.33827	501.83591	96.18282	177.30414	105.53060	124.42031	-168.66803	113.14485	123.69077	-138.71436	1418.85620	89.42186	-188.35922	1414.53516	-186.75829	-185.22714	1449.75732	-425.27786	-167.69972	1448.58557	-511.50586	139.62654	1420.47156	99.23218	183.38469	1406.60828	-177.62845	173.05687	1421.49841	-418.07312	163.07623	1410.13049	-504.76227	7.29933	1020.56525	147.50299	9.45681	1115.35828	126.25093	7.77740	1183.68787	133.05170	0.46788	1269.62036	158.51851	-8.01943	1401.42371	134.37521	-27904771620864.00000	0.00000	-27904805175296.00000	57.09816	1018.41632	147.79237	9.44288	1070.35754	148.37645	6.97261	1019.70508	197.34050	156.19382	986.30762	28.23701	-142.59915	999.20111	26.50076	45.65623	988.45465	177.11293	-34.02190	991.89294	176.64992	168.51651	719.10693	122.55993	-161.27260	726.47668	120.30859	160.66119	319.70239	84.74110	-152.03383	268.34882	79.69524	186.92560	29.36715	-87.55392	-175.22028	17.80045	-83.82669	131.41098	44.42553	160.05275	-123.63616	52.64429	161.28540	-3.63387	1.82985	7.42284	-2.78000	-3.38475	7.07672	0.02296	1.48039	0.11297	0.03623	1.54250	-0.02146	14.36327	5.60047	11.29651	14.89855	5.53967	11.32300
183	3.03333	-85.26282	927.18182	125.87950	91.74391	919.55786	126.68634	-101.17448	502.96002	90.95772	109.87703	495.52737	90.54588	-121.99358	109.24365	99.38249	131.65854	101.85217	98.44365	-158.03400	39.83087	-11.87206	171.10248	33.81754	-12.50718	158.22350	494.47849	97.74396	-149.68062	501.78329	96.96292	177.21640	105.43944	124.92972	-168.26688	112.92477	124.58427	-138.72223	1418.49329	89.49649	-188.82980	1413.94995	-186.59650	-186.52310	1448.82043	-425.17715	-169.86050	1446.54028	-511.55429	139.41321	1419.72534	99.53297	182.64233	1405.63940	-177.39951	172.05121	1420.47449	-417.83612	161.65587	1408.40234	-504.38123	7.32979	1020.54755	147.42644	9.44995	1115.22131	126.07705	7.77075	1183.45544	132.85538	0.47360	1269.28333	158.35271	-8.04945	1401.00305	134.30742	-27904771620864.00000	0.00000	-27904805175296.00000	57.12912	1018.40259	147.65343	9.47101	1070.34155	148.19612	7.06992	1019.78833	197.26599	156.06674	986.05835	28.03069	-142.72922	998.92810	26.66872	45.72860	988.49963	177.04996	-33.95033	991.93152	176.68677	168.58499	719.06604	123.06267	-161.36523	726.43164	121.14085	160.96927	319.64478	85.07764	-152.15689	268.20697	80.46583	188.33122	29.62837	-87.09924	-176.09634	18.20269	-83.17651	131.05460	44.28889	160.12961	-122.90491	52.36419	161.69580	-3.80980	1.87559	7.92616	-2.87778	-3.33878	7.42003	-0.02588	1.44948	0.09143	0.03237	1.44027	-0.04703	14.26185	5.59027	11.29242	14.73509	5.53387	11.31052
184	3.05000	-85.20900	927.16150	125.98052	91.79904	919.54059	126.46049	-101.30596	502.92978	91.26681	110.42427	495.52063	90.44791	-122.01979	109.21237	99.89277	131.40791	101.80203	98.33566	-158.45779	40.02008	-11.36962	171.78313	33.80225	-12.30110	158.69826	494.48663	98.11905	-149.79021	501.76199	97.44807	176.71512	105.28341	125.26218	-168.20572	112.84883	125.26077	-138.80106	1418.00134	89.57779	-188.81989	1413.60083	-186.53360	-188.00514	1447.79724	-425.22156	-172.11084	1444.68018	-511.71725	139.14410	1419.47449	99.78441	182.40375	1404.83142	-177.11440	171.16856	1419.36780	-417.54001	159.90201	1407.61206	-504.01959	7.42243	1020.54327	147.28947	9.48894	1115.12793	125.90331	7.79829	1183.28101	132.67593	0.49282	1269.02222	158.19151	-8.13986	1400.65979	134.18744	-27904771620864.00000	0.00000	-27904805175296.00000	57.22213	1018.39917	147.42451	9.56432	1070.33789	148.02089	7.25607	1019.81836	197.12993	155.93567	985.97412	27.63864	-142.86252	998.83862	26.82841	45.87724	988.51630	176.86293	-33.80227	991.94684	176.64687	168.73764	719.07434	123.56530	-161.35596	726.42041	121.58861	161.24463	319.54755	85.37353	-152.27884	268.16357	81.02781	189.70822	29.66948	-86.73204	-176.76291	18.57721	-82.66814	130.11732	44.18188	159.95792	-122.72955	52.21416	162.10010	-3.89574	1.94870	8.57558	-2.89463	-3.32318	7.51804	-0.02105	1.32301	0.09080	0.03116	1.42054	-0.05580	14.23830	5.58306	11.29407	14.60410	5.53491	11.31774
185	3.06667	-85.12081	927.21594	126.01722	91.89048	919.67847	125.42768	-101.66986	502.98340	91.52656	110.61951	495.61334	90.00549	-121.94647	109.24643	100.29948	131.67433	101.90549	98.23476	-158.91162	40.25396	-10.91310	172.12271	33.78514	-12.30108	158.89029	494.59991	97.69946	-150.12088	501.84802	97.96880	176.96567	105.42425	125.18307	-168.00333	112.79825	125.91295	-138.81956	1417.61401	89.44573	-188.59613	1413.25134	-186.71002	-189.08429	1446.85461	-425.48306	-174.46712	1443.07678	-512.17743	138.84650	1419.09204	100.40659	181.71625	1404.19934	-176.53952	170.14850	1418.76147	-416.94778	159.08424	1406.89062	-503.43774	7.59367	1020.64252	146.76128	9.49197	1115.17993	125.40559	7.80509	1183.26978	132.23927	0.56144	1268.92163	157.88188	-8.16810	1400.53467	134.09802	-27904771620864.00000	0.00000	-27904805175296.00000	57.39428	1018.52191	146.59541	9.71645	1070.43811	147.47726	7.72890	1019.92010	196.60187	155.39728	986.13708	26.21667	-143.40637	998.86072	27.21184	46.24163	988.63519	176.10335	-33.43934	992.02820	176.36873	168.87189	719.22443	122.84180	-161.41599	726.52130	122.09915	161.47656	319.64587	85.10736	-152.46094	268.16544	81.57490	190.08197	29.59686	-86.72068	-177.56020	18.99170	-82.17670	130.36491	44.35742	159.92395	-122.30608	52.12431	162.39609	-3.83843	1.96448	8.94283	-2.88904	-3.26234	7.47601	0.00926	1.31784	0.09779	0.03115	1.32609	-0.06127	14.25645	5.58119	11.29973	14.48128	5.53279	11.32633
186	3.08333	-84.91880	927.30511	125.50264	92.09418	919.87341	124.34963	-101.74958	503.04321	91.51302	110.52209	495.73978	89.59570	-122.02414	109.31509	100.67812	131.87071	102.05524	98.17634	-159.00070	40.45617	-10.61341	172.32993	33.76645	-12.25153	158.79483	494.70566	97.27465	-150.19972	501.94656	97.96863	177.16768	105.64846	125.10537	-168.07790	112.85124	126.29933	-139.02174	1417.29785	89.18303	-188.17166	1412.99036	-187.08583	-189.66475	1445.96802	-425.94196	-176.19063	1441.84045	-512.80542	138.52640	1418.96252	100.86143	181.33043	1403.80872	-176.08069	169.38048	1418.40649	-416.46814	158.30463	1406.49817	-502.95148	7.80545	1020.79028	145.93674	9.57568	1115.27563	124.66062	7.85502	1183.28149	131.60472	0.58922	1268.79834	157.45300	-8.28839	1400.39478	134.03914	-27904771620864.00000	0.00000	-27904805175296.00000	57.60653	1018.69940	145.61235	9.90071	1070.58728	146.63843	8.10009	1020.07556	195.77676	155.24442	986.35480	24.92651	-143.56210	998.89990	26.87285	46.56595	988.81055	175.16022	-33.11578	992.15594	175.67924	168.93811	719.36310	122.05618	-161.34415	726.65521	121.83862	161.50795	319.80560	84.84255	-152.54070	268.21533	81.79845	190.26466	29.48212	-86.67158	-177.64413	19.31694	-81.91495	130.61748	44.61517	159.96729	-122.40439	52.12443	162.71146	-3.75358	1.90361	9.11118	-2.84615	-3.20151	7.30439	0.06088	1.39207	0.09435	0.03627	1.28739	-0.06824	14.30532	5.58084	11.30268	14.35976	5.52432	11.32826
